<svg width="512" height="512" viewBox="0 0 512 512" fill="none" xmlns="http://www.w3.org/2000/svg">
  <path
    d="M470.202 380.227V225.232C470.202 217.16 466.657 209.496 460.508 204.269L389.431 143.854C370.529 127.787 346.529 118.965 321.72 118.965H191.504C165.39 118.965 140.127 128.251 120.229 145.164L50.6942 204.269C44.5443 209.496 41 217.16 41 225.232V380.227C41 388.949 45.1358 397.155 52.147 402.343L171.272 490.495C176.008 494 181.745 495.892 187.637 495.892H323.564C329.457 495.892 335.194 494 339.93 490.495L459.055 402.343C466.066 397.155 470.202 388.949 470.202 380.227Z"
    fill="white" stroke="#5294BC" stroke-width="16.5078" />
  <circle cx="173.062" cy="267.535" r="41.2694" fill="white" stroke="#5294BC" stroke-width="16.5078" />
  <circle cx="338.14" cy="267.535" r="41.2694" fill="white" stroke="#5294BC" stroke-width="16.5078" />
  <path
    d="M318.881 388.592C318.881 390.272 317.911 393.573 314.622 398.096C311.469 402.432 306.705 407.153 300.579 411.529C288.308 420.295 271.382 427.11 252.85 427.11C234.317 427.11 217.391 420.295 205.12 411.529C198.994 407.153 194.231 402.432 191.077 398.096C187.788 393.573 186.819 390.272 186.819 388.592C186.819 387.967 186.946 387.774 186.986 387.712C186.987 387.711 186.988 387.709 186.989 387.707C187.068 387.587 187.382 387.173 188.388 386.618C190.628 385.383 194.682 384.307 201.147 383.658C210.456 382.723 222.27 382.842 236.062 382.98C241.374 383.033 246.98 383.089 252.85 383.089C258.719 383.089 264.325 383.033 269.638 382.98C283.429 382.842 295.243 382.723 304.552 383.658C311.017 384.307 315.071 385.383 317.311 386.618C318.317 387.173 318.631 387.587 318.71 387.707L318.713 387.712C318.753 387.774 318.881 387.967 318.881 388.592Z"
    fill="white" stroke="#5294BC" stroke-width="16.5078" />
  <path d="M258.444 118.965C260.264 15.0412 205.341 19.5181 177.652 34.747" stroke="#5294BC"
    stroke-width="16.5137" />
  <circle cx="173.168" cy="49.1274" r="33.1236" fill="white" stroke="#5294BC" stroke-width="16.5137" />
</svg>