<svg width="512" height="512" viewBox="0 0 512 512" fill="none" xmlns="http://www.w3.org/2000/svg">
<g clip-path="url(#clip0_66_26)">
<rect x="18" y="19" width="475" height="475" rx="237.5" fill="#FFDD00"/>
<rect x="18" y="19" width="475" height="475" rx="237.5" fill="url(#paint0_radial_66_26)" fill-opacity="0.4"/>
<rect x="18" y="19" width="475" height="475" rx="237.5" fill="url(#paint1_diamond_66_26)" fill-opacity="0.2"/>
<rect x="18" y="19" width="475" height="475" rx="237.5" fill="url(#paint2_radial_66_26)" fill-opacity="0.8"/>
<ellipse cx="328.926" cy="183.044" rx="19.2057" ry="28.8086" transform="rotate(11.0121 328.926 183.044)" fill="url(#paint3_linear_66_26)"/>
<ellipse cx="328.926" cy="183.044" rx="19.2057" ry="28.8086" transform="rotate(11.0121 328.926 183.044)" fill="url(#paint4_radial_66_26)" fill-opacity="0.2"/>
<path d="M344.67 186.108C343.253 193.388 340.024 199.455 336.114 203.406C332.186 207.376 327.871 208.962 324.028 208.214C320.185 207.466 316.779 204.378 314.626 199.225C312.483 194.096 311.765 187.261 313.182 179.98C314.599 172.699 317.827 166.633 321.737 162.682C325.666 158.712 329.981 157.126 333.824 157.874C337.667 158.622 341.072 161.71 343.226 166.863C345.369 171.992 346.086 178.827 344.67 186.108Z" stroke="url(#paint5_radial_66_26)" stroke-opacity="0.03" stroke-width="6.33333"/>
<ellipse cx="154.868" cy="182.24" rx="20.0512" ry="30.0768" transform="rotate(11.8747 154.868 182.24)" fill="url(#paint6_linear_66_26)"/>
<ellipse cx="154.868" cy="182.24" rx="20.0512" ry="30.0768" transform="rotate(11.8747 154.868 182.24)" fill="url(#paint7_radial_66_26)" fill-opacity="0.2"/>
<path d="M169.585 185.334C168.051 192.629 164.729 198.594 160.858 202.39C156.956 206.216 152.979 207.455 149.711 206.767C146.443 206.08 143.302 203.345 141.271 198.272C139.256 193.238 138.618 186.44 140.152 179.145C141.686 171.851 145.008 165.885 148.879 162.089C152.781 158.264 156.758 157.025 160.026 157.712C163.294 158.399 166.435 161.135 168.466 166.208C170.481 171.242 171.119 178.04 169.585 185.334Z" stroke="black" stroke-opacity="0.01" stroke-width="10.0256"/>
<path d="M408.839 192.203C422.785 193.196 453.746 193.357 462.446 213.801C474.634 242.44 440.492 279.132 451.073 302.965C461.655 326.798 517.062 370.954 498.603 429.98C483.837 477.2 516.215 523.253 534.25 540.377C541.047 540.572 557.232 549.88 567.593 585.544C580.545 630.125 587.948 666.458 608.661 676.98" stroke="#7E7E7E" stroke-width="6.33333"/>
<path fill-rule="evenodd" clip-rule="evenodd" d="M156.013 143.39C146.624 143.46 134.065 146.726 117.558 159.923C113.802 162.927 108.312 162.69 105.083 159.125V159.125C101.855 155.56 102.113 150.024 105.847 146.994C125.108 131.367 141.579 126.081 155.883 125.974C163.68 125.916 170.38 127.407 175.941 129.075C178.481 129.837 180.847 130.657 182.884 131.363C183.049 131.421 183.212 131.477 183.373 131.533C185.611 132.308 187.332 132.89 188.841 133.287C197.227 135.494 212.201 136.788 223.283 137.39C228.085 137.651 231.876 141.65 231.75 146.458V146.458C231.623 151.266 227.628 155.062 222.825 154.808C211.194 154.192 194.557 152.801 184.408 150.13C182.157 149.537 179.821 148.734 177.674 147.991C177.527 147.94 177.38 147.889 177.234 147.838C175.147 147.115 173.109 146.409 170.936 145.757C166.353 144.382 161.476 143.35 156.013 143.39Z" fill="#88561C"/>
<path fill-rule="evenodd" clip-rule="evenodd" d="M298.858 144.822V144.822C295.067 147.49 289.491 147.914 285.832 145.068L285.583 144.875C281.787 141.922 281.202 136.495 284.954 133.486C286.17 132.511 287.474 131.536 288.835 130.579C293.26 127.465 298.85 124.139 305.255 121.15C317.971 115.216 334.547 110.311 351.96 111.651L352.364 111.682L352.763 111.75C368.419 114.434 379.02 121.008 385.968 127.368C389.409 130.517 391.884 133.548 393.601 135.885V135.885C395.953 139.087 396.051 142.687 392.714 144.843L384.857 149.919C383.852 150.569 382.518 150.432 381.825 149.456V149.456L381.812 149.438C381.585 149.119 381.339 148.754 381.141 148.459L381.119 148.426C380.675 147.768 380.185 147.04 379.564 146.196C378.337 144.525 376.607 142.41 374.209 140.216C369.533 135.936 362.041 131.092 350.221 128.986C336.892 128.056 323.544 131.835 312.62 136.933C307.15 139.486 302.449 142.295 298.858 144.822Z" fill="#88561C"/>
</g>
<path d="M401.232 191.476C399.689 226.839 371.454 253.947 338.603 252.514C305.751 251.081 279.984 221.616 281.527 186.254C283.07 150.891 311.305 123.782 344.156 125.215C377.008 126.648 402.775 156.113 401.232 191.476Z" fill="url(#paint8_linear_66_26)" stroke="url(#paint9_radial_66_26)" stroke-width="7.6"/>
<path d="M411.648 171.881L398.907 171.325L397.044 214.016L409.785 214.572L411.648 171.881Z" fill="#414141"/>
<rect width="438.165" height="133.871" transform="translate(29.5591 286.793) rotate(1.83586)" fill="black"/>
<path d="M128.7 319.4C125.813 319.307 123.548 316.892 123.641 314.006V314.006C123.733 311.119 126.148 308.854 129.035 308.947L191.565 310.951C194.451 311.043 196.716 313.459 196.624 316.345V316.345C196.531 319.232 194.116 321.497 191.23 321.404L171.828 320.782C168.53 320.677 165.771 323.265 165.665 326.563L163.262 401.557C163.157 404.811 160.435 407.364 157.181 407.26V407.26C153.927 407.155 151.373 404.433 151.478 401.179L153.882 326.185C153.987 322.887 151.399 320.128 148.101 320.022L128.7 319.4Z" fill="white"/>
<path d="M217.449 311.781C219.458 311.845 221.29 312.944 222.293 314.685L244.28 352.842C244.398 353.046 244.614 353.176 244.85 353.183V353.183C245.086 353.191 245.31 353.076 245.441 352.879L269.808 316.236C270.932 314.545 272.85 313.556 274.879 313.621V313.621C279.49 313.769 282.133 318.938 279.553 322.763L255.432 358.521C254.148 360.425 254.068 362.897 255.228 364.879L276.997 402.087C279.333 406.079 276.357 411.079 271.735 410.931V410.931C269.719 410.867 267.877 409.773 266.855 408.034L244.875 370.629C244.755 370.425 244.538 370.296 244.302 370.289V370.289C244.065 370.281 243.841 370.395 243.708 370.591L219.359 406.539C218.239 408.192 216.35 409.156 214.355 409.092V409.092C209.75 408.945 207.135 403.759 209.753 399.968L234.417 364.268C235.749 362.339 235.831 359.809 234.624 357.798L212.285 320.571C209.92 316.629 212.855 311.633 217.449 311.781V311.781Z" fill="white"/>
<path d="M300.395 324.903C297.509 324.811 295.244 322.396 295.336 319.509V319.509C295.429 316.623 297.844 314.357 300.73 314.45L363.26 316.454C366.147 316.547 368.412 318.962 368.319 321.848V321.848C368.227 324.735 365.812 327 362.925 326.908L343.524 326.286C340.226 326.18 337.466 328.768 337.361 332.066L334.957 407.06C334.853 410.314 332.13 412.867 328.876 412.763V412.763C325.622 412.659 323.069 409.936 323.173 406.682L325.577 331.688C325.683 328.39 323.095 325.631 319.797 325.525L300.395 324.903Z" fill="white"/>
<defs>
<radialGradient id="paint0_radial_66_26" cx="0" cy="0" r="1" gradientUnits="userSpaceOnUse" gradientTransform="translate(255.5 256.5) rotate(88.1424) scale(293.071 274.292)">
<stop stop-opacity="0"/>
<stop offset="0.73" stop-opacity="0"/>
<stop offset="1" stop-color="#FFA600"/>
</radialGradient>
<radialGradient id="paint1_diamond_66_26" cx="0" cy="0" r="1" gradientUnits="userSpaceOnUse" gradientTransform="translate(255.5 85.5) rotate(90) scale(528.042)">
<stop stop-color="white" stop-opacity="0"/>
<stop offset="1" stop-color="#FF0000" stop-opacity="0.6"/>
</radialGradient>
<radialGradient id="paint2_radial_66_26" cx="0" cy="0" r="1" gradientUnits="userSpaceOnUse" gradientTransform="translate(255.5 100.542) rotate(90) scale(182.083 155.48)">
<stop stop-color="white"/>
<stop offset="1" stop-color="white" stop-opacity="0"/>
</radialGradient>
<linearGradient id="paint3_linear_66_26" x1="328.926" y1="154.235" x2="328.926" y2="211.852" gradientUnits="userSpaceOnUse">
<stop stop-color="#784005"/>
<stop offset="1" stop-color="#A36507"/>
</linearGradient>
<radialGradient id="paint4_radial_66_26" cx="0" cy="0" r="1" gradientUnits="userSpaceOnUse" gradientTransform="translate(328.926 183.044) rotate(90) scale(28.8086 19.2057)">
<stop stop-color="white"/>
<stop offset="1"/>
</radialGradient>
<radialGradient id="paint5_radial_66_26" cx="0" cy="0" r="1" gradientUnits="userSpaceOnUse" gradientTransform="translate(328.926 183.044) rotate(101.012) scale(28.8086 19.2057)">
<stop/>
<stop offset="1" stop-color="#666666"/>
</radialGradient>
<linearGradient id="paint6_linear_66_26" x1="154.868" y1="152.163" x2="154.868" y2="212.317" gradientUnits="userSpaceOnUse">
<stop stop-color="#784005"/>
<stop offset="1" stop-color="#A36507"/>
</linearGradient>
<radialGradient id="paint7_radial_66_26" cx="0" cy="0" r="1" gradientUnits="userSpaceOnUse" gradientTransform="translate(155.227 182.704) rotate(94.2161) scale(54.2588 36.1726)">
<stop stop-color="white"/>
<stop offset="1" stop-opacity="0"/>
</radialGradient>
<linearGradient id="paint8_linear_66_26" x1="344.322" y1="121.419" x2="338.437" y2="256.31" gradientUnits="userSpaceOnUse">
<stop stop-color="#F5F5F5" stop-opacity="0.4"/>
<stop offset="1" stop-color="white" stop-opacity="0"/>
</linearGradient>
<radialGradient id="paint9_radial_66_26" cx="0" cy="0" r="1" gradientUnits="userSpaceOnUse" gradientTransform="translate(341.379 188.865) rotate(92.9159) scale(95.9806 90.579)">
<stop/>
<stop offset="1" stop-color="#666666"/>
</radialGradient>
<clipPath id="clip0_66_26">
<rect x="18" y="19" width="475" height="475" rx="237.5" fill="white"/>
</clipPath>
</defs>
</svg>
